<?xml version="1.0" encoding="UTF-8" standalone="no"?><!DOCTYPE svg PUBLIC "-//W3C//DTD SVG 1.1//EN" "http://www.w3.org/Graphics/SVG/1.1/DTD/svg11.dtd"><!-- Generated by graphviz version 2.40.1 (20161225.0304)
 --><!-- Title: finite_state_machine Pages: 1 --><svg xmlns="http://www.w3.org/2000/svg" xmlns:xlink="http://www.w3.org/1999/xlink" width="275pt" height="87pt" viewBox="0.00 0.00 274.59 87.31">
<g id="graph0" class="graph" transform="scale(1 1) rotate(0) translate(4 83.3089)">
<title>finite_state_machine</title>
<polygon fill="#ffffff" stroke="transparent" points="-4,4 -4,-83.3089 270.5884,-83.3089 270.5884,4 -4,4"/>
<!-- S -->
<g id="node1" class="node">
<title>S</title>
<ellipse fill="none" stroke="#000000" cx="62.6" cy="-22.5089" rx="18" ry="18"/>
<ellipse fill="none" stroke="#000000" cx="62.6" cy="-22.5089" rx="22" ry="22"/>
<text text-anchor="middle" x="62.6" y="-18.3089" font-family="Times,serif" font-size="14.00" fill="#000000">S</text>
</g>
<!-- S&#45;&gt;S -->
<g id="edge3" class="edge">
<title>S-&gt;S</title>
<path fill="none" stroke="#000000" d="M55.2831,-43.4997C54.3798,-53.5961 56.8188,-62.5089 62.6,-62.5089 66.3036,-62.5089 68.6356,-58.8511 69.5958,-53.5676"/>
<polygon fill="#000000" stroke="#000000" points="73.0963,-53.6062 69.9169,-43.4997 66.0998,-53.383 73.0963,-53.6062"/>
<text text-anchor="middle" x="62.6" y="-66.7089" font-family="Times,serif" font-size="14.00" fill="#000000">a</text>
</g>
<!-- q1 -->
<g id="node3" class="node">
<title>q1</title>
<ellipse fill="none" stroke="#000000" cx="147.5081" cy="-22.5089" rx="20.8887" ry="20.8887"/>
<text text-anchor="middle" x="147.5081" y="-18.3089" font-family="Times,serif" font-size="14.00" fill="#000000">q1</text>
</g>
<!-- S&#45;&gt;q1 -->
<g id="edge2" class="edge">
<title>S-&gt;q1</title>
<path fill="none" stroke="#000000" d="M84.9086,-22.5089C94.6372,-22.5089 106.2032,-22.5089 116.7305,-22.5089"/>
<polygon fill="#000000" stroke="#000000" points="116.8051,-26.009 126.8051,-22.5089 116.8051,-19.009 116.8051,-26.009"/>
<text text-anchor="middle" x="105.7073" y="-26.7089" font-family="Times,serif" font-size="14.00" fill="#000000">a</text>
</g>
<!-- qi -->
<g id="node2" class="node">
<title>qi</title>
<ellipse fill="#000000" stroke="#000000" cx="1.8" cy="-22.5089" rx="1.8" ry="1.8"/>
</g>
<!-- qi&#45;&gt;S -->
<g id="edge1" class="edge">
<title>qi-&gt;S</title>
<path fill="none" stroke="#000000" d="M3.8229,-22.5089C8.2086,-22.5089 19.1055,-22.5089 30.3421,-22.5089"/>
<polygon fill="#000000" stroke="#000000" points="30.58,-26.009 40.58,-22.5089 30.5799,-19.009 30.58,-26.009"/>
</g>
<!-- q1&#45;&gt;S -->
<g id="edge4" class="edge">
<title>q1-&gt;S</title>
<path fill="none" stroke="#000000" d="M130.1536,-10.825C123.7325,-7.1519 116.2105,-3.5708 108.8146,-1.7089 102.3194,-.0738 95.6005,-1.2503 89.3653,-3.711"/>
<polygon fill="#000000" stroke="#000000" points="87.4101,-.7777 80.067,-8.4151 90.5701,-7.0238 87.4101,-.7777"/>
<text text-anchor="middle" x="105.7073" y="-6.7089" font-family="Times,serif" font-size="14.00" fill="#000000">a</text>
</g>
<!-- q2 -->
<g id="node4" class="node">
<title>q2</title>
<ellipse fill="none" stroke="#000000" cx="245.895" cy="-22.5089" rx="20.8887" ry="20.8887"/>
<text text-anchor="middle" x="245.895" y="-18.3089" font-family="Times,serif" font-size="14.00" fill="#000000">q2</text>
</g>
<!-- q1&#45;&gt;q2 -->
<g id="edge5" class="edge">
<title>q1-&gt;q2</title>
<path fill="none" stroke="#000000" d="M168.3734,-22.5089C181.8089,-22.5089 199.521,-22.5089 214.6229,-22.5089"/>
<polygon fill="#000000" stroke="#000000" points="215.0597,-26.009 225.0597,-22.5089 215.0597,-19.009 215.0597,-26.009"/>
<text text-anchor="middle" x="196.7015" y="-26.7089" font-family="Times,serif" font-size="14.00" fill="#000000">ddb</text>
</g>
<!-- q2&#45;&gt;q1 -->
<g id="edge6" class="edge">
<title>q2-&gt;q1</title>
<path fill="none" stroke="#000000" d="M228.5405,-10.825C222.1195,-7.1519 214.5974,-3.5708 207.2015,-1.7089 198.1506,.5696 195.2524,.5696 186.2015,-1.7089 182.0413,-2.7562 177.8412,-4.3475 173.8196,-6.1931"/>
<polygon fill="#000000" stroke="#000000" points="172.1374,-3.1227 164.8625,-10.825 175.3528,-9.3405 172.1374,-3.1227"/>
<text text-anchor="middle" x="196.7015" y="-6.7089" font-family="Times,serif" font-size="14.00" fill="#000000">b</text>
</g>
<!-- q2&#45;&gt;q2 -->
<g id="edge7" class="edge">
<title>q2-&gt;q2</title>
<path fill="none" stroke="#000000" d="M237.2663,-41.621C235.8,-51.8675 238.6762,-61.2024 245.895,-61.2024 250.5195,-61.2024 253.3618,-57.3713 254.422,-51.9238"/>
<polygon fill="#000000" stroke="#000000" points="257.9247,-51.6551 254.5236,-41.621 250.925,-51.586 257.9247,-51.6551"/>
<text text-anchor="middle" x="245.895" y="-65.4024" font-family="Times,serif" font-size="14.00" fill="#000000">b</text>
</g>
</g>
</svg>